<svg xmlns="http://www.w3.org/2000/svg" viewBox="0 0 294.048 294.048" style="enable-background:new 0 0 294.048 294.048;" xml:space="preserve">
<path d="M294.048,56.386c0-8.284-6.716-15-15-15H15c-8.284,0-15,6.716-15,15v181.276c0,8.284,6.716,15,15,15h264.048
	c8.284,0,15-6.716,15-15V56.386z M264.048,86.936c0,4.415-1.937,8.607-5.298,11.469l-57.52,48.976l57.575,49.023
	c3.327,2.832,5.243,6.982,5.243,11.351c0,8.233-6.674,14.908-14.908,14.908h-0.128c-3.643,0-7.168-1.297-9.942-3.659l-60.979-51.922
	l-21.343,18.172c-2.803,2.386-6.264,3.579-9.725,3.579c-3.461,0-6.922-1.193-9.725-3.579l-21.343-18.172L55.075,218.92
	c-2.837,2.416-6.442,3.742-10.168,3.742c-8.233,0-14.908-6.674-14.908-14.908c0-4.369,1.917-8.518,5.243-11.351l57.576-49.023
	L36.094,99.082C32.228,95.79,30,90.967,30,85.889c0-8.01,6.493-14.504,14.504-14.504c3.446,0,6.779,1.227,9.403,3.461l88.376,75.248
	c2.733,2.327,6.751,2.327,9.485,0l88.375-75.248c2.624-2.234,5.957-3.461,9.402-3.461c8.01,0,14.503,6.493,14.503,14.503V86.936z"/>
</svg>
