<svg width="24" height="24" viewBox="0 0 24 24" fill="none" xmlns="http://www.w3.org/2000/svg">
<path d="M17 7.99994H19C19.5304 7.99994 20.0391 8.21065 20.4142 8.58573C20.7893 8.9608 21 9.46951 21 9.99994V15.9999C21 16.5304 20.7893 17.0391 20.4142 17.4142C20.0391 17.7892 19.5304 17.9999 19 17.9999H17V21.9999L13 17.9999H9C8.73733 18.0002 8.47719 17.9486 8.23453 17.848C7.99187 17.7475 7.77148 17.5999 7.586 17.4139M7.586 17.4139L11 13.9999H15C15.5304 13.9999 16.0391 13.7892 16.4142 13.4142C16.7893 13.0391 17 12.5304 17 11.9999V5.99994C17 5.46951 16.7893 4.9608 16.4142 4.58573C16.0391 4.21065 15.5304 3.99994 15 3.99994H5C4.46957 3.99994 3.96086 4.21065 3.58579 4.58573C3.21071 4.9608 3 5.46951 3 5.99994V11.9999C3 12.5304 3.21071 13.0391 3.58579 13.4142C3.96086 13.7892 4.46957 13.9999 5 13.9999H7V17.9999L7.586 17.4139Z" stroke="url(#paint0_linear_3_2045)" stroke-width="2" stroke-linecap="round" stroke-linejoin="round"/>
<defs>
<linearGradient id="paint0_linear_3_2045" x1="4.92614" y1="12.9999" x2="16.7045" y2="12.9999" gradientUnits="userSpaceOnUse">
<stop stop-color="#6875F5"/>
<stop offset="0.512814" stop-color="#3F83F8"/>
<stop offset="1" stop-color="#1A56DB"/>
</linearGradient>
</defs>
</svg>
