<svg width="24" height="24" viewBox="0 0 24 24" fill="none" xmlns="http://www.w3.org/2000/svg">
<path d="M18 2.00006H8C6.93913 2.00006 5.92172 2.42149 5.17157 3.17163C4.42143 3.92178 4 4.9392 4 6.00006V18.0001C4 19.0609 4.42143 20.0783 5.17157 20.8285C5.92172 21.5786 6.93913 22.0001 8 22.0001H18C18.5304 22.0001 19.0391 21.7893 19.4142 21.4143C19.7893 21.0392 20 20.5305 20 20.0001V4.00006C20 3.46963 19.7893 2.96092 19.4142 2.58585C19.0391 2.21077 18.5304 2.00006 18 2.00006ZM6 6.00006C6 5.46963 6.21071 4.96092 6.58579 4.58585C6.96086 4.21077 7.46957 4.00006 8 4.00006H18V14.0001H8C7.29504 14.003 6.60399 14.1965 6 14.5601V6.00006ZM8 20.0001C7.46957 20.0001 6.96086 19.7893 6.58579 19.4143C6.21071 19.0392 6 18.5305 6 18.0001C6 17.4696 6.21071 16.9609 6.58579 16.5858C6.96086 16.2108 7.46957 16.0001 8 16.0001H18V20.0001H8ZM10 8.00006H14C14.2652 8.00006 14.5196 7.8947 14.7071 7.70717C14.8946 7.51963 15 7.26528 15 7.00006C15 6.73485 14.8946 6.48049 14.7071 6.29295C14.5196 6.10542 14.2652 6.00006 14 6.00006H10C9.73478 6.00006 9.48043 6.10542 9.29289 6.29295C9.10536 6.48049 9 6.73485 9 7.00006C9 7.26528 9.10536 7.51963 9.29289 7.70717C9.48043 7.8947 9.73478 8.00006 10 8.00006Z" fill="url(#paint0_linear_3_2037)"/>
<defs>
<linearGradient id="paint0_linear_3_2037" x1="5.71212" y1="12" x2="16.1818" y2="12" gradientUnits="userSpaceOnUse">
<stop stop-color="#6875F5"/>
<stop offset="0.512814" stop-color="#3F83F8"/>
<stop offset="1" stop-color="#1A56DB"/>
</linearGradient>
</defs>
</svg>
