<svg width="24" height="24" viewBox="0 0 24 24" fill="none" xmlns="http://www.w3.org/2000/svg">
<path d="M7 3.99994V19.9999M17 3.99994V19.9999M3 7.99994H7M17 7.99994H21M3 11.9999H21M3 15.9999H7M17 15.9999H21M4 19.9999H20C20.2652 19.9999 20.5196 19.8946 20.7071 19.707C20.8946 19.5195 21 19.2652 21 18.9999V4.99994C21 4.73472 20.8946 4.48037 20.7071 4.29283C20.5196 4.1053 20.2652 3.99994 20 3.99994H4C3.73478 3.99994 3.48043 4.1053 3.29289 4.29283C3.10536 4.48037 3 4.73472 3 4.99994V18.9999C3 19.2652 3.10536 19.5195 3.29289 19.707C3.48043 19.8946 3.73478 19.9999 4 19.9999Z" stroke="url(#paint0_linear_3_2041)" stroke-width="2" stroke-linecap="round" stroke-linejoin="round"/>
<defs>
<linearGradient id="paint0_linear_3_2041" x1="4.92614" y1="11.9999" x2="16.7045" y2="11.9999" gradientUnits="userSpaceOnUse">
<stop stop-color="#6875F5"/>
<stop offset="0.512814" stop-color="#3F83F8"/>
<stop offset="1" stop-color="#1A56DB"/>
</linearGradient>
</defs>
</svg>
